<?xml version="1.0" encoding="utf-8"?>
<!-- Generator: Adobe Illustrator 27.5.0, SVG Export Plug-In . SVG Version: 6.00 Build 0)  -->
<svg version="1.1" id="Layer_1" xmlns="http://www.w3.org/2000/svg" xmlns:xlink="http://www.w3.org/1999/xlink" x="0px" y="0px"
	 viewBox="0 0 200 200.001" style="enable-background:new 0 0 200 200.001;" xml:space="preserve">
<g>
	<radialGradient id="SVGID_1_" cx="100" cy="100.0003" r="193.0602" gradientUnits="userSpaceOnUse">
		<stop  offset="0" style="stop-color:#FFFFFF"/>
		<stop  offset="0.2999" style="stop-color:#FFFFFF"/>
		<stop  offset="0.3495" style="stop-color:#FFFFFF"/>
		<stop  offset="0.4884" style="stop-color:#FCFCFC"/>
		<stop  offset="0.5765" style="stop-color:#F4F4F4"/>
		<stop  offset="0.6504" style="stop-color:#E5E5E5"/>
		<stop  offset="0.7166" style="stop-color:#D0D0D0"/>
		<stop  offset="0.7776" style="stop-color:#B5B5B5"/>
		<stop  offset="0.8347" style="stop-color:#949494"/>
		<stop  offset="0.8889" style="stop-color:#6D6D6D"/>
		<stop  offset="0.9407" style="stop-color:#3F3F3F"/>
		<stop  offset="0.989" style="stop-color:#0D0D0D"/>
		<stop  offset="1" style="stop-color:#000000"/>
	</radialGradient>
	<rect style="fill:url(#SVGID_1_);" width="200" height="200.001"/>
	
		<radialGradient id="SVGID_00000027590592535777665540000008590112956323785913_" cx="-205.4749" cy="-2365.5583" r="35.6508" gradientTransform="matrix(1.9318 0 0 0.1826 496.9356 575.1687)" gradientUnits="userSpaceOnUse">
		<stop  offset="0" style="stop-color:#000000"/>
		<stop  offset="0.0339" style="stop-color:#1C1C1C"/>
		<stop  offset="0.0981" style="stop-color:#4B4B4B"/>
		<stop  offset="0.168" style="stop-color:#767676"/>
		<stop  offset="0.242" style="stop-color:#9B9B9B"/>
		<stop  offset="0.3211" style="stop-color:#BABABA"/>
		<stop  offset="0.4069" style="stop-color:#D3D3D3"/>
		<stop  offset="0.5022" style="stop-color:#E7E7E7"/>
		<stop  offset="0.612" style="stop-color:#F5F5F5"/>
		<stop  offset="0.7492" style="stop-color:#FDFDFD"/>
		<stop  offset="1" style="stop-color:#FFFFFF"/>
	</radialGradient>
	
		<path style="opacity:0.5;fill-rule:evenodd;clip-rule:evenodd;fill:url(#SVGID_00000027590592535777665540000008590112956323785913_);" d="
		M168.865,143.217c0,3.595-30.832,6.511-68.866,6.511c-38.033,0-68.866-2.916-68.866-6.511c0-3.597,30.833-6.51,68.866-6.51
		C138.033,136.708,168.865,139.621,168.865,143.217z"/>
	<g>
		<path style="fill:#CC0606;" d="M135.742,80.352c16.77-11.682,28.25,9.808,14.627,19.448c0.938-3.448,1.204-7.097,0.77-10.611
			c-0.168-1.373,0.034-0.904-0.903-0.804c-0.771,0.101-1.741,0.068-2.21,1.674c-0.904,3.013-5.557,10.377-8.402,9.172
			c-2.477-1.105,0.202-6.93,3.717-10.846c2.912-3.28,6.459-5.188,7.698-1.773c0.534,1.439,2.208,0,0.534-1.406
			c-3.58-2.811-8.301-1.172-11.11,2.209c-3.55,4.218-6.428,11.147-1.642,13.188c3.85,1.172,7.666-5.322,9.205-8.301
			c0.135,0.536,0.135,2.075-0.033,3.95c-0.201,1.908-0.534,3.648-1.104,5.322c-47.666,17.138-12.385,25.104,2.979-0.2
			c16.1-8.134,5.925-35.983-14.394-21.389C135.106,80.218,135.306,80.653,135.742,80.352L135.742,80.352z M146.387,102.98
			c-13.089,21.354-35.014,11.982-1.674,0.57L146.387,102.98z"/>
		<path style="fill:#CC0606;" d="M138.42,91.934c0.502-0.97-0.268-1.305-0.67-0.435c-1.004,2.008-4.05,8.302-6.56,8.302
			c-0.638,0-1.14-0.435-0.771-2.41c0.635-3.347,5.757-12.352,5.757-12.352c-1.639-0.602-6.561,2.444-8.871,4.485
			c-1.473,1.306-3.011,3.113-3.981,4.318c1.605-3.213,4.016-7.598,5.488-8.803c0.369-0.267,0.403-0.167-0.033-0.167
			c-0.568,0-1.137-0.201-1.674-0.234c-1.54-0.101-2.142,0.736-3.38,3.012c-2.276,4.218-4.185,8.603-6.36,12.988
			c-0.401,0.737-0.268,0.401,0.268,0.267c0.301-0.066,0.636-0.1,1.104-0.1c1.005,0,1.44,0,1.809-0.67c2.678-5.322,5.02-8,6.66-9.506
			c3.716-3.447,4.553-2.142,3.415-0.268c-1.34,2.142-2.243,3.782-2.646,5.021c-1.438,4.452,0.871,5.623,2.545,5.623
			c3.681,0,6.459-6.092,7.899-9.038V91.934z"/>
		<path style="fill:#CC0606;" d="M113.984,96.72c0.1-0.334,0.569-1.372,0.569-1.372l3.85-8.972c0.501-1.171,0.501-1.672-1.038-1.672
			l-1.741,0.033c-1.305,0-0.77-0.135-0.435,0.735c0.135,0.369,0.201,0.804,0.034,1.272l-3.08,7.832
			c-1.005,2.478-1.005,6.227,2.61,6.227c3.549,0,6.262-6.092,7.532-8.77c0.4-0.971-0.269-1.306-0.636-0.435
			c-1.341,2.678-2.914,5.657-4.52,7.23c-0.536,0.502-1.437,1.004-2.144,0.904C113.65,99.666,113.55,98.327,113.984,96.72
			L113.984,96.72z"/>
		<path style="fill:#CC0606;" d="M120.747,80.753c0.168-1.105-0.57-1.975-1.674-1.975c-1.071,0-2.109,0.87-2.311,1.975
			c-0.168,1.105,0.568,1.976,1.674,1.976C119.541,82.729,120.546,81.859,120.747,80.753L120.747,80.753z"/>
		<path style="fill:#CC0606;" d="M114.017,91.967c0.47-0.937-0.266-1.272-0.669-0.435c-1.004,2.21-4.082,8.302-6.561,8.302
			c-0.635,0-1.17-0.435-0.835-2.377c0.601-2.979,4.651-10.343,5.589-12.05c0.167-0.335,0.3-0.368-0.168-0.401
			c-1.873-0.101-6.393,2.644-8.535,4.586c-1.439,1.272-3.013,3.113-3.983,4.318c1.171-2.377,2.645-4.72,3.515-6.728
			c0.435-0.971,0.135-1.775-0.736-2.11c-1.607-0.569-4.686,2.444-6.995,4.519c-1.473,1.272-3.013,3.113-3.984,4.318
			c1.44-2.845,3.449-6.561,4.921-8.234c1.004-1.139,1.171-0.569-0.269-0.836c-0.3-0.067-0.601-0.133-0.869-0.133
			c-1.507-0.102-2.143,0.702-3.381,3.012c-2.209,4.017-3.983,8.201-6.093,12.452c-0.602,1.239-0.502,0.703,0.469,0.636
			c0.202-0.034,0.402-0.034,0.671-0.034c1.071-0.033,1.505-0.066,1.84-0.769c2.71-5.289,4.987-7.866,6.594-9.372
			c5.054-4.687,3.515-1.206,1.942,2.075c-0.838,1.774-1.674,3.348-2.042,5.456c-0.167,1.139,0.234,2.21,1.004,2.544
			c0.569,0.235,0.535,0.101,0.67-0.334c0.904-2.946,4.685-7.9,6.627-9.741c3.715-3.447,4.586-2.142,3.415-0.268
			c-1.34,2.142-2.243,3.782-2.645,5.021c-1.44,4.452,0.87,5.623,2.61,5.623C109.768,101.005,112.579,94.913,114.017,91.967
			L114.017,91.967z"/>
		<path style="fill:#CC0606;" d="M89.784,91.8c0.368-0.737-0.469-0.938-0.703-0.436c-1.138,2.31-3.649,8.233-6.728,8.233
			c-1.14,0-1.842-0.468-2.244-1.204c1.842-1.707,3.315-3.984,4.018-5.657c1.84-4.251,1.305-8.67-2.343-8.704
			c-3.247-0.101-7.23,3.615-9.106,8.034c-1.84,4.285-1.305,8.636,2.345,8.737c1.405,0.033,2.845-0.636,4.184-1.641
			c0.603,0.736,1.64,1.272,3.08,1.272C86.302,100.436,88.98,93.608,89.784,91.8L89.784,91.8z M82.788,85.608
			c1.74,0.536,1.506,3.916-0.368,7.866c-0.435,0.903-0.971,1.807-1.506,2.578c0.066-0.202,0.1-0.336,0.1-0.536
			c0-0.77-0.602-1.439-1.439-1.439c-1.205,0-1.607,0.971-1.673,2.075c0,0.736,0.235,1.573,0.77,2.344
			c-1.138,0.97-2.344,1.439-3.246,1.204c-1.742-0.536-1.307-3.883,0.568-7.799C77.767,88.085,80.746,85.038,82.788,85.608
			L82.788,85.608z"/>
		<path style="fill:#CC0606;" d="M109.834,107.265c-2.846,1.004-5.054,3.146-5.355,5.354c-10.444-0.367-24.569,0.905-24.603,11.213
			c0,0.369,0.4,0.302,0.436,0c0.066-9.305,14.092-10.376,24.2-10.007c0.2,1.137,0.938,2.276,2.443,3.246
			c2.444,1.64,6.828,2.812,8.871,4.452c3.982,3.214,1.64,8.871-3.85,11.749c-5.657,2.946-15.198,2.711-17.674-2.612
			c3.48,0.537,6.394,0.102,8.669-0.869c1.607-0.701,2.913-1.64,3.884-2.712c0.971-1.071,1.64-2.275,1.941-3.414
			c2.644-10.276-19.481-7.397-16.771,5.289c-2.677-0.535-4.885-1.707-7.598-3.38c-0.402-0.235-0.602,0.301-0.334,0.501
			c2.911,2.143,5.724,3.581,8.334,4.219c2.778,6.794,14.729,7.129,21.355,3.146c5.556-3.314,9.942-9.474,3.247-13.624
			c-2.411-1.507-5.724-2.644-7.731-3.85c-1.039-0.636-1.675-1.339-2.042-2.009c1.908,0.101,3.58,0.269,4.853,0.401
			C128.513,116.034,124.563,102.11,109.834,107.265L109.834,107.265z M106.888,112.754c-0.101-1.908,1.709-3.717,4.186-4.586
			c10.777-3.884,16.569,6.593,1.171,5.02C110.805,113.023,108.963,112.855,106.888,112.754L106.888,112.754z M93.867,129.391
			c-2.911-12.788,15.967-14.461,13.791-6.026c-0.269,0.97-0.837,2.009-1.674,2.912c-0.871,0.971-2.041,1.808-3.481,2.41
			C100.261,129.657,97.382,130.058,93.867,129.391L93.867,129.391z M133.298,126.846c0.235-0.503-0.333-0.602-0.469-0.301
			c-0.803,1.573-2.51,5.656-4.618,5.656c-0.77,0-1.273-0.334-1.54-0.837c1.273-1.172,2.276-2.712,2.778-3.848
			c1.236-2.914,0.87-5.927-1.607-5.993c-2.242-0.033-4.953,2.51-6.26,5.523c-1.238,2.912-0.869,5.891,1.608,5.957
			c0.972,0.034,1.94-0.401,2.879-1.104c0.401,0.502,1.103,0.871,2.075,0.871C130.922,132.771,132.729,128.085,133.298,126.846
			L133.298,126.846z M128.513,122.628c1.205,0.335,1.037,2.678-0.268,5.356c-0.269,0.636-0.636,1.271-1.005,1.772
			c0.034-0.133,0.066-0.233,0.066-0.334c0-0.535-0.434-1.004-0.971-1.004c-0.836,0-1.137,0.671-1.171,1.405
			c0,0.502,0.167,1.104,0.536,1.606c-0.803,0.67-1.607,1.005-2.243,0.838c-1.171-0.336-0.871-2.645,0.402-5.358
			C125.098,124.335,127.105,122.194,128.513,122.628L128.513,122.628z M144.311,126.846c0.199-0.503-0.336-0.602-0.503-0.301
			c-0.802,1.573-2.511,5.656-4.584,5.656c-0.805,0-1.307-0.334-1.543-0.837c1.24-1.172,2.244-2.712,2.747-3.848
			c1.238-2.914,0.869-5.927-1.607-5.993c-2.243-0.033-4.955,2.51-6.226,5.523c-1.238,2.912-0.903,5.891,1.605,5.957
			c0.939,0.034,1.942-0.401,2.846-1.104c0.436,0.502,1.105,0.871,2.108,0.871C141.9,132.771,143.742,128.085,144.311,126.846
			L144.311,126.846z M139.491,122.628c1.204,0.335,1.038,2.678-0.233,5.356c-0.302,0.636-0.671,1.271-1.039,1.772
			c0.034-0.133,0.068-0.233,0.068-0.334c0-0.535-0.436-1.004-0.972-1.004c-0.838,0-1.139,0.671-1.139,1.405
			c-0.033,0.502,0.134,1.104,0.503,1.606c-0.771,0.67-1.607,1.005-2.211,0.838c-1.204-0.336-0.902-2.645,0.369-5.358
			C136.077,124.335,138.085,122.194,139.491,122.628L139.491,122.628z M155.223,126.947c0.336-0.67-0.166-0.871-0.467-0.301
			c-0.67,1.405-2.781,5.689-4.487,5.689c-0.436,0-0.771-0.303-0.534-1.64c0.367-1.909,2.81-6.427,3.648-7.935
			c0.266-0.502,0.534-0.669-0.268-0.567c-1.405,0.167-4.118,1.907-5.49,3.112c-1.036,0.903-2.075,2.143-2.744,2.945
			c0.938-1.842,2.242-4.25,3.247-5.455c0.77-0.971,0.97-0.537-0.066-0.737c-0.2-0.033-0.402-0.101-0.569-0.101
			c-1.071-0.066-1.506,0.502-2.344,2.075c-1.506,2.813-2.811,5.758-4.251,8.67c-0.401,0.838-0.269,0.368,0.401,0.335
			c0.133-0.034,0.269-0.034,0.436-0.034c0.702,0,1.005,0.034,1.239-0.435c1.873-3.648,3.48-5.49,4.586-6.494
			c2.51-2.376,3.111-1.473,2.309-0.2c-0.904,1.473-1.541,2.577-1.807,3.448c-0.971,3.046,0.603,3.816,1.739,3.816
			c2.544,0,4.419-4.152,5.423-6.16V126.947z"/>
		<path style="fill:#CC0606;" d="M49.75,79.415c2.51,5.155,6.929,7.432,11.916,8.134c19.749,2.879,26.577-20.184,7.866-22.294
			c-7.599-0.869-14.795,2.11-19.951,8.771c-0.501-2.577-0.937-6.091-0.4-9.104c0.234-1.339-0.77-1.072-0.938-0.234
			c-0.971,3.548-0.603,8,0.168,10.979c-14.226,17.942-3.147,44.888,23.899,39.9c18.443-3.413,36.418-15.631,49.439-9.941
			c0.536,0.235,0.804-0.301,0.334-0.502c-14.627-6.527-32.87,5.256-50.544,7.833C49.081,116.202,39.106,93.306,49.75,79.415
			L49.75,79.415z M69.967,67.063c13.991,2.043,9.741,21.255-7.598,19.348c-5.221-0.569-9.472-3.013-11.647-8.536
			C55.475,70.612,62.805,66.026,69.967,67.063L69.967,67.063z"/>
	</g>
</g>
</svg>
