<svg xmlns="http://www.w3.org/2000/svg" xmlns:xlink="http://www.w3.org/1999/xlink" width="500" zoomAndPan="magnify" viewBox="0 0 375 374.999991" height="500" preserveAspectRatio="xMidYMid meet" version="1.0"><defs><g/><clipPath id="0a00c18458"><path d="M 72 251 L 164.269531 251 L 164.269531 254 L 72 254 Z M 72 251 " clip-rule="nonzero"/></clipPath><clipPath id="73cd827b73"><path d="M 58.59375 248.675781 L 164.269531 248.675781 L 164.269531 255.425781 L 58.59375 255.425781 Z M 58.59375 248.675781 " clip-rule="nonzero"/></clipPath><clipPath id="281f84dd14"><path d="M 210.71875 251 L 303 251 L 303 254 L 210.71875 254 Z M 210.71875 251 " clip-rule="nonzero"/></clipPath><clipPath id="e4ec8222e9"><path d="M 210.71875 248.675781 L 316.40625 248.675781 L 316.40625 255.425781 L 210.71875 255.425781 Z M 210.71875 248.675781 " clip-rule="nonzero"/></clipPath><clipPath id="18bb7b873f"><path d="M 111.398438 130 L 243 130 L 243 169 L 111.398438 169 Z M 111.398438 130 " clip-rule="nonzero"/></clipPath><clipPath id="520ca58275"><path d="M 134 154 L 263.648438 154 L 263.648438 172 L 134 172 Z M 134 154 " clip-rule="nonzero"/></clipPath></defs><g clip-path="url(#0a00c18458)"><path fill="#242323" d="M 72.613281 251.351562 L 276.519531 251.351562 L 276.519531 253.640625 Z M 72.613281 251.351562 " fill-opacity="1" fill-rule="nonzero"/></g><g clip-path="url(#73cd827b73)"><path fill="#242323" d="M 292.070312 241.242188 L 277.925781 241.242188 L 275.746094 245.621094 L 58.59375 245.621094 L 274.355469 245.621094 L 276.785156 247.441406 L 278.957031 243.683594 L 288.222656 243.683594 L 280.492188 257.675781 L 87.25 257.675781 L 281.53125 259.488281 L 292.070312 241.242188 " fill-opacity="1" fill-rule="nonzero"/></g><g clip-path="url(#281f84dd14)"><path fill="#242323" d="M 302.386719 251.351562 L 98.480469 251.351562 L 98.480469 253.640625 Z M 302.386719 251.351562 " fill-opacity="1" fill-rule="nonzero"/></g><g clip-path="url(#e4ec8222e9)"><path fill="#242323" d="M 82.929688 241.242188 L 97.074219 241.242188 L 99.253906 245.621094 L 316.40625 245.621094 L 100.644531 245.621094 L 98.214844 247.441406 L 96.042969 243.683594 L 86.777344 243.683594 L 94.507812 257.675781 L 287.75 257.675781 L 93.46875 259.488281 L 82.929688 241.242188 " fill-opacity="1" fill-rule="nonzero"/></g><g fill="#242323" fill-opacity="1"><g transform="translate(92.948363, 228.314311)"><g><path d="M 1.03125 -7.417969 C 0.890625 -7.417969 0.808594 -7.339844 0.808594 -7.1875 L 0.808594 -0.210938 C 0.808594 -0.0585938 0.890625 0 1.03125 0 L 5.878906 0 C 6.019531 0 6.097656 -0.078125 6.097656 -0.21875 L 6.097656 -0.628906 C 6.097656 -0.789062 6.019531 -0.871094 5.867188 -0.871094 L 1.667969 -0.871094 L 1.667969 -3.46875 L 4.980469 -3.46875 C 5.117188 -3.46875 5.199219 -3.578125 5.199219 -3.699219 L 5.199219 -4.109375 C 5.199219 -4.269531 5.097656 -4.339844 4.980469 -4.339844 L 1.667969 -4.339844 L 1.667969 -6.546875 L 5.828125 -6.546875 C 5.976562 -6.546875 6.058594 -6.660156 6.058594 -6.777344 L 6.058594 -7.1875 C 6.058594 -7.347656 5.976562 -7.417969 5.839844 -7.417969 Z M 1.03125 -7.417969 "/></g></g></g><g fill="#242323" fill-opacity="1"><g transform="translate(104.365818, 228.314311)"><g><path d="M 3.847656 -3.699219 L 6.207031 -7.167969 C 6.257812 -7.238281 6.277344 -7.296875 6.277344 -7.339844 C 6.277344 -7.398438 6.207031 -7.417969 6.078125 -7.417969 L 5.589844 -7.417969 C 5.429688 -7.417969 5.347656 -7.367188 5.21875 -7.199219 L 3.339844 -4.4375 L 1.480469 -7.199219 C 1.351562 -7.367188 1.28125 -7.417969 1.148438 -7.417969 L 0.609375 -7.417969 C 0.480469 -7.417969 0.410156 -7.398438 0.410156 -7.328125 C 0.410156 -7.289062 0.429688 -7.238281 0.480469 -7.167969 C 1.128906 -6.226562 2.007812 -4.9375 2.839844 -3.699219 L 0.46875 -0.21875 C 0.429688 -0.160156 0.410156 -0.121094 0.410156 -0.078125 C 0.410156 -0.03125 0.449219 0 0.550781 0 L 1.160156 0 C 1.28125 0 1.371094 -0.0585938 1.460938 -0.179688 L 3.339844 -2.96875 L 5.230469 -0.179688 C 5.308594 -0.0585938 5.410156 0 5.527344 0 L 6.128906 0 C 6.226562 0 6.277344 -0.03125 6.277344 -0.078125 C 6.277344 -0.121094 6.257812 -0.171875 6.21875 -0.21875 Z M 3.847656 -3.699219 "/></g></g></g><g fill="#242323" fill-opacity="1"><g transform="translate(116.033179, 228.314311)"><g><path d="M 0.808594 -0.21875 C 0.808594 -0.0703125 0.878906 0 1.03125 0 L 1.449219 0 C 1.597656 0 1.667969 -0.0703125 1.667969 -0.21875 L 1.667969 -2.800781 L 3.550781 -2.800781 C 4.839844 -2.800781 5.828125 -3.867188 5.828125 -5.097656 C 5.828125 -6.359375 4.828125 -7.417969 3.519531 -7.417969 L 1.039062 -7.417969 C 0.890625 -7.417969 0.808594 -7.339844 0.808594 -7.179688 Z M 4.96875 -5.109375 C 4.96875 -4.328125 4.308594 -3.648438 3.519531 -3.648438 L 1.667969 -3.648438 L 1.667969 -6.566406 L 3.519531 -6.566406 C 4.328125 -6.566406 4.96875 -5.878906 4.96875 -5.109375 Z M 4.96875 -5.109375 "/></g></g></g><g fill="#242323" fill-opacity="1"><g transform="translate(127.320687, 228.314311)"><g><path d="M 1.667969 -0.851562 L 1.667969 -7.199219 C 1.667969 -7.339844 1.578125 -7.417969 1.449219 -7.417969 L 1.039062 -7.417969 C 0.890625 -7.417969 0.808594 -7.316406 0.808594 -7.199219 L 0.808594 -0.21875 C 0.808594 -0.0703125 0.878906 0 1.03125 0 L 5.277344 0 C 5.410156 0 5.5 -0.101562 5.5 -0.21875 L 5.5 -0.621094 C 5.5 -0.769531 5.398438 -0.851562 5.277344 -0.851562 Z M 1.667969 -0.851562 "/></g></g></g><g fill="#242323" fill-opacity="1"><g transform="translate(138.058409, 228.314311)"><g><path d="M 4.257812 -7.519531 C 2.148438 -7.519531 0.441406 -5.808594 0.441406 -3.699219 C 0.441406 -1.589844 2.140625 0.109375 4.25 0.109375 C 6.367188 0.109375 8.078125 -1.589844 8.078125 -3.6875 C 8.078125 -5.820312 6.359375 -7.519531 4.257812 -7.519531 Z M 1.308594 -3.710938 C 1.308594 -5.328125 2.621094 -6.648438 4.257812 -6.648438 C 5.878906 -6.648438 7.199219 -5.328125 7.199219 -3.710938 C 7.199219 -2.070312 5.878906 -0.75 4.257812 -0.75 C 2.621094 -0.75 1.308594 -2.070312 1.308594 -3.710938 Z M 1.308594 -3.710938 "/></g></g></g><g fill="#242323" fill-opacity="1"><g transform="translate(151.585035, 228.314311)"><g><path d="M 5.410156 -5.070312 C 5.410156 -4.257812 4.769531 -3.570312 3.929688 -3.570312 L 1.667969 -3.570312 L 1.667969 -6.566406 L 3.917969 -6.566406 C 4.757812 -6.566406 5.410156 -5.859375 5.410156 -5.070312 Z M 0.808594 -0.21875 C 0.808594 -0.0703125 0.890625 0 1.03125 0 L 1.449219 0 C 1.597656 0 1.667969 -0.0703125 1.667969 -0.21875 L 1.667969 -2.71875 L 3.417969 -2.71875 C 3.550781 -2.71875 3.96875 -2.71875 4.039062 -2.730469 L 5.25 -0.191406 C 5.308594 -0.0703125 5.378906 0 5.507812 0 L 6.058594 0 C 6.179688 0 6.238281 -0.0507812 6.238281 -0.128906 C 6.238281 -0.148438 6.226562 -0.179688 6.21875 -0.21875 L 4.898438 -2.929688 C 5.707031 -3.300781 6.269531 -4.117188 6.269531 -5.058594 C 6.269531 -6.359375 5.230469 -7.417969 3.917969 -7.417969 L 1.03125 -7.417969 C 0.890625 -7.417969 0.808594 -7.339844 0.808594 -7.179688 Z M 0.808594 -0.21875 "/></g></g></g><g fill="#242323" fill-opacity="1"><g transform="translate(163.292381, 228.314311)"><g><path d="M 1.03125 -7.417969 C 0.890625 -7.417969 0.808594 -7.339844 0.808594 -7.1875 L 0.808594 -0.210938 C 0.808594 -0.0585938 0.890625 0 1.03125 0 L 5.878906 0 C 6.019531 0 6.097656 -0.078125 6.097656 -0.21875 L 6.097656 -0.628906 C 6.097656 -0.789062 6.019531 -0.871094 5.867188 -0.871094 L 1.667969 -0.871094 L 1.667969 -3.46875 L 4.980469 -3.46875 C 5.117188 -3.46875 5.199219 -3.578125 5.199219 -3.699219 L 5.199219 -4.109375 C 5.199219 -4.269531 5.097656 -4.339844 4.980469 -4.339844 L 1.667969 -4.339844 L 1.667969 -6.546875 L 5.828125 -6.546875 C 5.976562 -6.546875 6.058594 -6.660156 6.058594 -6.777344 L 6.058594 -7.1875 C 6.058594 -7.347656 5.976562 -7.417969 5.839844 -7.417969 Z M 1.03125 -7.417969 "/></g></g></g><g fill="#242323" fill-opacity="1"><g transform="translate(174.709836, 228.314311)"><g><path d="M 0.601562 -0.449219 C 0.601562 -0.128906 0.859375 0.160156 1.167969 0.210938 L 1.167969 0.25 C 1.167969 0.511719 0.980469 0.558594 0.980469 0.679688 C 0.980469 0.71875 1.007812 0.789062 1.058594 0.828125 L 1.210938 0.949219 C 1.25 0.980469 1.28125 0.988281 1.328125 0.988281 C 1.5 0.988281 1.929688 0.539062 1.929688 -0.398438 C 1.929688 -0.828125 1.648438 -1.121094 1.257812 -1.121094 C 0.898438 -1.121094 0.601562 -0.828125 0.601562 -0.449219 Z M 0.601562 -0.449219 "/></g></g></g><g fill="#242323" fill-opacity="1"><g transform="translate(182.348783, 228.314311)"><g><path d="M 0.808594 -0.210938 C 0.808594 -0.0507812 0.910156 0 1.039062 0 L 3.328125 0 C 5.386719 0 7.046875 -1.660156 7.046875 -3.699219 C 7.046875 -5.777344 5.429688 -7.417969 3.328125 -7.417969 L 1.039062 -7.417969 C 0.890625 -7.417969 0.808594 -7.339844 0.808594 -7.179688 Z M 1.667969 -0.851562 L 1.667969 -6.566406 L 3.328125 -6.566406 C 4.867188 -6.566406 6.199219 -5.457031 6.199219 -3.757812 C 6.199219 -2.238281 5.027344 -0.851562 3.390625 -0.851562 Z M 1.667969 -0.851562 "/></g></g></g><g fill="#242323" fill-opacity="1"><g transform="translate(194.795829, 228.314311)"><g><path d="M 5.410156 -5.070312 C 5.410156 -4.257812 4.769531 -3.570312 3.929688 -3.570312 L 1.667969 -3.570312 L 1.667969 -6.566406 L 3.917969 -6.566406 C 4.757812 -6.566406 5.410156 -5.859375 5.410156 -5.070312 Z M 0.808594 -0.21875 C 0.808594 -0.0703125 0.890625 0 1.03125 0 L 1.449219 0 C 1.597656 0 1.667969 -0.0703125 1.667969 -0.21875 L 1.667969 -2.71875 L 3.417969 -2.71875 C 3.550781 -2.71875 3.96875 -2.71875 4.039062 -2.730469 L 5.25 -0.191406 C 5.308594 -0.0703125 5.378906 0 5.507812 0 L 6.058594 0 C 6.179688 0 6.238281 -0.0507812 6.238281 -0.128906 C 6.238281 -0.148438 6.226562 -0.179688 6.21875 -0.21875 L 4.898438 -2.929688 C 5.707031 -3.300781 6.269531 -4.117188 6.269531 -5.058594 C 6.269531 -6.359375 5.230469 -7.417969 3.917969 -7.417969 L 1.03125 -7.417969 C 0.890625 -7.417969 0.808594 -7.339844 0.808594 -7.179688 Z M 0.808594 -0.21875 "/></g></g></g><g fill="#242323" fill-opacity="1"><g transform="translate(206.50318, 228.314311)"><g><path d="M 1.667969 -7.199219 C 1.667969 -7.328125 1.578125 -7.417969 1.449219 -7.417969 L 1.03125 -7.417969 C 0.890625 -7.417969 0.808594 -7.339844 0.808594 -7.199219 L 0.808594 -0.21875 C 0.808594 -0.0703125 0.878906 0 1.03125 0 L 1.449219 0 C 1.589844 0 1.667969 -0.0703125 1.667969 -0.21875 Z M 1.667969 -7.199219 "/></g></g></g><g fill="#242323" fill-opacity="1"><g transform="translate(213.982191, 228.314311)"><g><path d="M 1.179688 -7.21875 C 1.140625 -7.339844 1.039062 -7.417969 0.910156 -7.417969 L 0.46875 -7.417969 C 0.328125 -7.417969 0.25 -7.367188 0.25 -7.257812 C 0.261719 -7.148438 0.300781 -7.046875 0.320312 -7.007812 L 3.160156 -0.191406 C 3.1875 -0.109375 3.277344 0 3.417969 0 L 3.710938 0 C 3.898438 0 3.9375 -0.128906 3.96875 -0.199219 L 6.839844 -7.128906 C 6.839844 -7.136719 6.859375 -7.21875 6.859375 -7.25 C 6.859375 -7.359375 6.777344 -7.417969 6.636719 -7.417969 L 6.207031 -7.417969 C 6.070312 -7.417969 5.976562 -7.339844 5.929688 -7.226562 C 5.417969 -5.949219 4.027344 -2.507812 3.558594 -1.371094 C 3.089844 -2.507812 1.679688 -5.9375 1.179688 -7.21875 Z M 1.179688 -7.21875 "/></g></g></g><g fill="#242323" fill-opacity="1"><g transform="translate(226.159345, 228.314311)"><g><path d="M 1.03125 -7.417969 C 0.890625 -7.417969 0.808594 -7.339844 0.808594 -7.1875 L 0.808594 -0.210938 C 0.808594 -0.0585938 0.890625 0 1.03125 0 L 5.878906 0 C 6.019531 0 6.097656 -0.078125 6.097656 -0.21875 L 6.097656 -0.628906 C 6.097656 -0.789062 6.019531 -0.871094 5.867188 -0.871094 L 1.667969 -0.871094 L 1.667969 -3.46875 L 4.980469 -3.46875 C 5.117188 -3.46875 5.199219 -3.578125 5.199219 -3.699219 L 5.199219 -4.109375 C 5.199219 -4.269531 5.097656 -4.339844 4.980469 -4.339844 L 1.667969 -4.339844 L 1.667969 -6.546875 L 5.828125 -6.546875 C 5.976562 -6.546875 6.058594 -6.660156 6.058594 -6.777344 L 6.058594 -7.1875 C 6.058594 -7.347656 5.976562 -7.417969 5.839844 -7.417969 Z M 1.03125 -7.417969 "/></g></g></g><g fill="#242323" fill-opacity="1"><g transform="translate(237.576805, 228.314311)"><g><path d="M 0.601562 -0.449219 C 0.601562 -0.128906 0.859375 0.160156 1.167969 0.210938 L 1.167969 0.25 C 1.167969 0.511719 0.980469 0.558594 0.980469 0.679688 C 0.980469 0.71875 1.007812 0.789062 1.058594 0.828125 L 1.210938 0.949219 C 1.25 0.980469 1.28125 0.988281 1.328125 0.988281 C 1.5 0.988281 1.929688 0.539062 1.929688 -0.398438 C 1.929688 -0.828125 1.648438 -1.121094 1.257812 -1.121094 C 0.898438 -1.121094 0.601562 -0.828125 0.601562 -0.449219 Z M 0.601562 -0.449219 "/></g></g></g><g fill="#242323" fill-opacity="1"><g transform="translate(245.215759, 228.314311)"><g><path d="M 1.667969 -0.851562 L 1.667969 -7.199219 C 1.667969 -7.339844 1.578125 -7.417969 1.449219 -7.417969 L 1.039062 -7.417969 C 0.890625 -7.417969 0.808594 -7.316406 0.808594 -7.199219 L 0.808594 -0.21875 C 0.808594 -0.0703125 0.878906 0 1.03125 0 L 5.277344 0 C 5.410156 0 5.5 -0.101562 5.5 -0.21875 L 5.5 -0.621094 C 5.5 -0.769531 5.398438 -0.851562 5.277344 -0.851562 Z M 1.667969 -0.851562 "/></g></g></g><g fill="#242323" fill-opacity="1"><g transform="translate(255.953486, 228.314311)"><g><path d="M 1.667969 -7.199219 C 1.667969 -7.328125 1.578125 -7.417969 1.449219 -7.417969 L 1.03125 -7.417969 C 0.890625 -7.417969 0.808594 -7.339844 0.808594 -7.199219 L 0.808594 -0.21875 C 0.808594 -0.0703125 0.878906 0 1.03125 0 L 1.449219 0 C 1.589844 0 1.667969 -0.0703125 1.667969 -0.21875 Z M 1.667969 -7.199219 "/></g></g></g><g fill="#242323" fill-opacity="1"><g transform="translate(263.432497, 228.314311)"><g><path d="M 1.179688 -7.21875 C 1.140625 -7.339844 1.039062 -7.417969 0.910156 -7.417969 L 0.46875 -7.417969 C 0.328125 -7.417969 0.25 -7.367188 0.25 -7.257812 C 0.261719 -7.148438 0.300781 -7.046875 0.320312 -7.007812 L 3.160156 -0.191406 C 3.1875 -0.109375 3.277344 0 3.417969 0 L 3.710938 0 C 3.898438 0 3.9375 -0.128906 3.96875 -0.199219 L 6.839844 -7.128906 C 6.839844 -7.136719 6.859375 -7.21875 6.859375 -7.25 C 6.859375 -7.359375 6.777344 -7.417969 6.636719 -7.417969 L 6.207031 -7.417969 C 6.070312 -7.417969 5.976562 -7.339844 5.929688 -7.226562 C 5.417969 -5.949219 4.027344 -2.507812 3.558594 -1.371094 C 3.089844 -2.507812 1.679688 -5.9375 1.179688 -7.21875 Z M 1.179688 -7.21875 "/></g></g></g><g fill="#242323" fill-opacity="1"><g transform="translate(275.609651, 228.314311)"><g><path d="M 1.03125 -7.417969 C 0.890625 -7.417969 0.808594 -7.339844 0.808594 -7.1875 L 0.808594 -0.210938 C 0.808594 -0.0585938 0.890625 0 1.03125 0 L 5.878906 0 C 6.019531 0 6.097656 -0.078125 6.097656 -0.21875 L 6.097656 -0.628906 C 6.097656 -0.789062 6.019531 -0.871094 5.867188 -0.871094 L 1.667969 -0.871094 L 1.667969 -3.46875 L 4.980469 -3.46875 C 5.117188 -3.46875 5.199219 -3.578125 5.199219 -3.699219 L 5.199219 -4.109375 C 5.199219 -4.269531 5.097656 -4.339844 4.980469 -4.339844 L 1.667969 -4.339844 L 1.667969 -6.546875 L 5.828125 -6.546875 C 5.976562 -6.546875 6.058594 -6.660156 6.058594 -6.777344 L 6.058594 -7.1875 C 6.058594 -7.347656 5.976562 -7.417969 5.839844 -7.417969 Z M 1.03125 -7.417969 "/></g></g></g><g fill="#242323" fill-opacity="1"><g transform="translate(171.410852, 254.872162)"><g><path d="M 5.328125 0 C 5.457031 0 5.558594 -0.121094 5.558594 -0.238281 L 5.558594 -0.628906 C 5.558594 -0.789062 5.457031 -0.851562 5.328125 -0.851562 L 1.917969 -0.851562 C 2.429688 -1.339844 4.339844 -3.167969 4.839844 -3.660156 C 5.230469 -4.039062 5.507812 -4.609375 5.507812 -5.25 C 5.507812 -6.609375 4.390625 -7.46875 3.027344 -7.46875 C 2.097656 -7.46875 1.410156 -6.988281 0.960938 -6.429688 C 0.929688 -6.378906 0.871094 -6.277344 0.871094 -6.199219 C 0.871094 -6.160156 0.890625 -6.136719 0.917969 -6.097656 L 1.300781 -5.789062 C 1.320312 -5.769531 1.351562 -5.757812 1.378906 -5.757812 C 1.449219 -5.757812 1.539062 -5.820312 1.578125 -5.878906 C 1.890625 -6.359375 2.429688 -6.617188 2.96875 -6.636719 L 3.027344 -6.636719 C 3.898438 -6.636719 4.617188 -6.046875 4.617188 -5.230469 C 4.617188 -4.820312 4.480469 -4.507812 4.058594 -4.089844 L 0.648438 -0.761719 C 0.628906 -0.710938 0.621094 -0.667969 0.621094 -0.628906 L 0.621094 -0.238281 C 0.621094 -0.109375 0.730469 0 0.859375 0 Z M 5.328125 0 "/></g></g></g><g fill="#242323" fill-opacity="1"><g transform="translate(179.56842, 254.872162)"><g><path d="M 4.257812 -7.519531 C 2.148438 -7.519531 0.441406 -5.808594 0.441406 -3.699219 C 0.441406 -1.589844 2.140625 0.109375 4.25 0.109375 C 6.367188 0.109375 8.078125 -1.589844 8.078125 -3.6875 C 8.078125 -5.820312 6.359375 -7.519531 4.257812 -7.519531 Z M 1.308594 -3.710938 C 1.308594 -5.328125 2.621094 -6.648438 4.257812 -6.648438 C 5.878906 -6.648438 7.199219 -5.328125 7.199219 -3.710938 C 7.199219 -2.070312 5.878906 -0.75 4.257812 -0.75 C 2.621094 -0.75 1.308594 -2.070312 1.308594 -3.710938 Z M 1.308594 -3.710938 "/></g></g></g><g fill="#242323" fill-opacity="1"><g transform="translate(190.095053, 254.872162)"><g><path d="M 5.328125 0 C 5.457031 0 5.558594 -0.121094 5.558594 -0.238281 L 5.558594 -0.628906 C 5.558594 -0.789062 5.457031 -0.851562 5.328125 -0.851562 L 1.917969 -0.851562 C 2.429688 -1.339844 4.339844 -3.167969 4.839844 -3.660156 C 5.230469 -4.039062 5.507812 -4.609375 5.507812 -5.25 C 5.507812 -6.609375 4.390625 -7.46875 3.027344 -7.46875 C 2.097656 -7.46875 1.410156 -6.988281 0.960938 -6.429688 C 0.929688 -6.378906 0.871094 -6.277344 0.871094 -6.199219 C 0.871094 -6.160156 0.890625 -6.136719 0.917969 -6.097656 L 1.300781 -5.789062 C 1.320312 -5.769531 1.351562 -5.757812 1.378906 -5.757812 C 1.449219 -5.757812 1.539062 -5.820312 1.578125 -5.878906 C 1.890625 -6.359375 2.429688 -6.617188 2.96875 -6.636719 L 3.027344 -6.636719 C 3.898438 -6.636719 4.617188 -6.046875 4.617188 -5.230469 C 4.617188 -4.820312 4.480469 -4.507812 4.058594 -4.089844 L 0.648438 -0.761719 C 0.628906 -0.710938 0.621094 -0.667969 0.621094 -0.628906 L 0.621094 -0.238281 C 0.621094 -0.109375 0.730469 0 0.859375 0 Z M 5.328125 0 "/></g></g></g><g fill="#242323" fill-opacity="1"><g transform="translate(198.252621, 254.872162)"><g><path d="M 2.628906 -6.648438 C 3.230469 -6.648438 3.699219 -6.207031 3.699219 -5.609375 C 3.699219 -5.019531 3.230469 -4.578125 2.648438 -4.578125 C 2.488281 -4.578125 2.410156 -4.5 2.410156 -4.359375 L 2.410156 -3.96875 C 2.410156 -3.820312 2.480469 -3.75 2.628906 -3.75 C 3.46875 -3.75 4.167969 -3.089844 4.167969 -2.257812 C 4.167969 -1.359375 3.4375 -0.730469 2.550781 -0.730469 C 2.007812 -0.730469 1.507812 -0.96875 1.160156 -1.5 C 1.089844 -1.597656 1.03125 -1.800781 0.878906 -1.800781 C 0.839844 -1.800781 0.789062 -1.789062 0.738281 -1.757812 L 0.390625 -1.539062 C 0.339844 -1.5 0.328125 -1.46875 0.328125 -1.417969 C 0.328125 -1.25 0.429688 -1.140625 0.558594 -0.929688 C 0.960938 -0.441406 1.46875 0.109375 2.628906 0.109375 C 3.9375 0.109375 5.007812 -0.941406 5.007812 -2.25 C 5.007812 -3.097656 4.558594 -3.808594 3.890625 -4.21875 C 4.277344 -4.550781 4.527344 -5.039062 4.527344 -5.609375 C 4.527344 -6.660156 3.679688 -7.488281 2.628906 -7.488281 C 1.878906 -7.488281 1.230469 -7.089844 0.910156 -6.386719 C 0.878906 -6.339844 0.871094 -6.296875 0.871094 -6.257812 C 0.871094 -6.1875 0.910156 -6.148438 0.988281 -6.109375 L 1.390625 -5.917969 C 1.441406 -5.898438 1.46875 -5.886719 1.507812 -5.886719 C 1.578125 -5.886719 1.628906 -5.9375 1.667969 -6.039062 C 1.839844 -6.417969 2.21875 -6.648438 2.628906 -6.648438 Z M 2.628906 -6.648438 "/></g></g></g><path fill="#242323" d="M 189.886719 127.042969 C 167.117188 126.9375 147.53125 130.550781 144.707031 130.910156 C 140.1875 131.480469 138.703125 134.589844 138.703125 134.589844 L 129.949219 153.785156 C 131.496094 153.597656 133.492188 153.355469 135.855469 153.066406 C 136.390625 116.640625 228.296875 130.710938 231.375 132.761719 C 218.355469 128.511719 203.546875 127.105469 189.886719 127.042969 Z M 189.886719 127.042969 " fill-opacity="1" fill-rule="nonzero"/><g clip-path="url(#18bb7b873f)"><path fill="#242323" d="M 169.464844 132.117188 C 169.464844 132.117188 193.316406 128.023438 231.046875 134.785156 C 230.691406 134.429688 238.34375 140.835938 242.4375 154.007812 C 242.257812 153.828125 140.8125 145.109375 111.445312 168.066406 C 111.980469 167.355469 124.082031 154.71875 160.390625 151.515625 C 196.695312 148.3125 239.945312 156.675781 234.785156 144.398438 C 229.621094 132.117188 201.5 132.117188 169.464844 132.117188 Z M 169.464844 132.117188 " fill-opacity="1" fill-rule="nonzero"/></g><path fill="#242323" d="M 130.488281 153.605469 L 127.417969 156.453125 C 127.417969 156.453125 125.371094 153.828125 118.386719 154.097656 C 111.402344 154.363281 115.226562 146.621094 119.367188 146.53125 C 123.503906 146.441406 127.507812 145.730469 127.195312 147.867188 C 126.882812 150.003906 126.839844 152.804688 126.21875 153.074219 C 125.59375 153.339844 126.261719 146.976562 121.101562 147.957031 C 115.9375 148.933594 116.960938 151.027344 118.253906 151.515625 C 119.542969 152.003906 121.414062 150.757812 122.96875 152.582031 C 124.527344 154.40625 129.109375 155.386719 130.488281 153.605469 Z M 130.488281 153.605469 " fill-opacity="1" fill-rule="nonzero"/><path fill="#242323" d="M 242.117188 153.921875 L 245.1875 156.769531 C 245.1875 156.769531 247.234375 154.140625 254.222656 154.410156 C 261.207031 154.675781 257.378906 146.933594 253.242188 146.84375 C 249.105469 146.757812 245.097656 146.042969 245.410156 148.179688 C 245.722656 150.316406 245.765625 153.121094 246.390625 153.386719 C 247.011719 153.652344 246.34375 147.289062 251.507812 148.269531 C 256.667969 149.25 255.644531 151.339844 254.355469 151.828125 C 253.0625 152.316406 251.195312 151.074219 249.636719 152.898438 C 248.082031 154.71875 243.496094 155.699219 242.117188 153.921875 Z M 242.117188 153.921875 " fill-opacity="1" fill-rule="nonzero"/><g clip-path="url(#520ca58275)"><path fill="#242323" d="M 192.03125 154.363281 C 174.738281 154.421875 155.828125 156.316406 134.960938 162.640625 L 134.996094 162.632812 C 167.089844 154.945312 204.179688 155.105469 230.808594 157.03125 C 230.71875 157.035156 230.675781 157.035156 230.585938 157.039062 C 227.019531 157.222656 224.855469 157.75 220.105469 158.171875 C 215.359375 158.597656 210.585938 159.136719 206.910156 159.800781 C 205.074219 160.132812 203.515625 160.492188 202.359375 160.886719 C 201.78125 161.082031 201.304688 161.289062 200.941406 161.515625 C 200.574219 161.738281 200.304688 161.976562 200.195312 162.289062 C 200.082031 162.617188 200.226562 162.960938 200.496094 163.210938 C 234.253906 183.9375 257.273438 144.628906 262.824219 171.289062 C 263.085938 171.273438 263.34375 171.253906 263.589844 171.25 C 262.457031 163.25 258.335938 161.277344 256.71875 158.585938 C 256.214844 157.746094 255.546875 157.355469 254.863281 157.292969 C 254.179688 157.230469 253.503906 157.476562 252.90625 157.804688 C 248.488281 161.117188 243.109375 163.1875 237.964844 164.160156 C 232.609375 165.125 226.546875 165.519531 220.890625 165.511719 C 193.667969 160.609375 225.710938 158.429688 239.367188 157.105469 C 224.984375 156.082031 209.316406 154.304688 192.03125 154.363281 Z M 192.03125 154.363281 " fill-opacity="1" fill-rule="nonzero"/></g><g fill="#242323" fill-opacity="1"><g transform="translate(82.506963, 206.314309)"><g><path d="M 34.265625 -26.625 C 34.265625 -24.457031 33.660156 -22.457031 32.453125 -20.625 C 31.242188 -18.789062 29.242188 -17.394531 26.453125 -16.4375 L 32.828125 0 L 20.5625 0 L 15.734375 -15.234375 L 15.125 -15.234375 L 11.875 0 L 0 0 L 7.421875 -34.921875 L 21.890625 -34.921875 C 23.578125 -34.921875 25.171875 -34.816406 26.671875 -34.609375 C 28.179688 -34.410156 29.492188 -34.007812 30.609375 -33.40625 C 31.722656 -32.800781 32.609375 -31.957031 33.265625 -30.875 C 33.929688 -29.800781 34.265625 -28.382812 34.265625 -26.625 Z M 18.421875 -18.75 C 19.378906 -18.75 20.195312 -19.070312 20.875 -19.71875 C 21.550781 -20.363281 22.097656 -21.144531 22.515625 -22.0625 C 22.941406 -22.976562 23.242188 -23.957031 23.421875 -25 C 23.609375 -26.039062 23.703125 -26.945312 23.703125 -27.71875 C 23.703125 -28.675781 23.535156 -29.492188 23.203125 -30.171875 C 22.878906 -30.847656 22.164062 -31.1875 21.0625 -31.1875 L 18.59375 -31.1875 L 15.84375 -18.75 Z M 18.421875 -18.75 "/></g></g></g><g fill="#242323" fill-opacity="1"><g transform="translate(115.944439, 206.314309)"><g><path d="M 11.984375 -11.0625 C 11.835938 -10.25 11.738281 -9.472656 11.6875 -8.734375 C 11.632812 -8.003906 11.609375 -7.347656 11.609375 -6.765625 C 11.609375 -6.429688 11.625 -6.0625 11.65625 -5.65625 C 11.695312 -5.257812 11.78125 -4.882812 11.90625 -4.53125 C 12.03125 -4.1875 12.210938 -3.894531 12.453125 -3.65625 C 12.691406 -3.414062 13.03125 -3.296875 13.46875 -3.296875 C 13.800781 -3.296875 14.175781 -3.40625 14.59375 -3.625 C 15.019531 -3.84375 15.441406 -4.15625 15.859375 -4.5625 C 16.285156 -4.96875 16.691406 -5.460938 17.078125 -6.046875 C 17.460938 -6.640625 17.765625 -7.300781 17.984375 -8.03125 L 27 -8.03125 L 25.578125 -2.140625 C 24.835938 -1.671875 23.988281 -1.269531 23.03125 -0.9375 C 22.082031 -0.601562 21.078125 -0.332031 20.015625 -0.125 C 18.953125 0.0703125 17.867188 0.210938 16.765625 0.296875 C 15.671875 0.390625 14.628906 0.4375 13.640625 0.4375 C 11.804688 0.4375 10.097656 0.273438 8.515625 -0.046875 C 6.941406 -0.378906 5.566406 -0.945312 4.390625 -1.75 C 3.222656 -2.5625 2.300781 -3.632812 1.625 -4.96875 C 0.945312 -6.3125 0.609375 -7.972656 0.609375 -9.953125 C 0.609375 -11.753906 0.890625 -13.515625 1.453125 -15.234375 C 2.023438 -16.953125 2.976562 -18.476562 4.3125 -19.8125 C 5.65625 -21.15625 7.453125 -22.226562 9.703125 -23.03125 C 11.960938 -23.84375 14.78125 -24.25 18.15625 -24.25 C 21.820312 -24.25 24.578125 -23.679688 26.421875 -22.546875 C 28.273438 -21.410156 29.203125 -19.632812 29.203125 -17.21875 C 29.203125 -16.226562 29.054688 -15.15625 28.765625 -14 C 28.472656 -12.84375 28.03125 -11.863281 27.4375 -11.0625 Z M 19.3125 -17.59375 C 19.3125 -18.738281 19.125 -19.507812 18.75 -19.90625 C 18.382812 -20.3125 17.945312 -20.515625 17.4375 -20.515625 C 16.851562 -20.515625 16.3125 -20.320312 15.8125 -19.9375 C 15.3125 -19.550781 14.859375 -19.035156 14.453125 -18.390625 C 14.054688 -17.753906 13.691406 -17.019531 13.359375 -16.1875 C 13.035156 -15.363281 12.765625 -14.492188 12.546875 -13.578125 L 18.8125 -13.578125 C 18.882812 -14.023438 18.957031 -14.484375 19.03125 -14.953125 C 19.101562 -15.359375 19.164062 -15.800781 19.21875 -16.28125 C 19.28125 -16.757812 19.3125 -17.195312 19.3125 -17.59375 Z M 19.3125 -17.59375 "/></g></g></g><g fill="#242323" fill-opacity="1"><g transform="translate(144.652256, 206.314309)"><g><path d="M 14.734375 -20.125 C 15.503906 -20.863281 16.367188 -21.546875 17.328125 -22.171875 C 18.171875 -22.679688 19.160156 -23.15625 20.296875 -23.59375 C 21.429688 -24.03125 22.695312 -24.25 24.09375 -24.25 C 26 -24.25 27.570312 -23.765625 28.8125 -22.796875 C 30.0625 -21.828125 30.6875 -20.5 30.6875 -18.8125 C 30.6875 -18.332031 30.628906 -17.753906 30.515625 -17.078125 C 30.410156 -16.398438 30.285156 -15.691406 30.140625 -14.953125 C 29.992188 -14.222656 29.835938 -13.484375 29.671875 -12.734375 C 29.503906 -11.984375 29.367188 -11.3125 29.265625 -10.71875 L 26.953125 0 L 15.78125 0 L 18.8125 -14.359375 C 18.882812 -14.828125 18.972656 -15.3125 19.078125 -15.8125 C 19.191406 -16.3125 19.25 -16.757812 19.25 -17.15625 C 19.25 -17.707031 19.109375 -18.15625 18.828125 -18.5 C 18.554688 -18.851562 18.144531 -19.03125 17.59375 -19.03125 C 16.9375 -19.03125 16.304688 -18.789062 15.703125 -18.3125 C 15.097656 -17.832031 14.628906 -17.429688 14.296875 -17.109375 L 10.671875 0 L -0.546875 0 L 4.453125 -23.65625 L 13.421875 -23.65625 L 14.40625 -20.125 Z M 14.734375 -20.125 "/></g></g></g><g fill="#242323" fill-opacity="1"><g transform="translate(175.504914, 206.314309)"><g><path d="M 2.53125 -23.65625 C 3.882812 -23.945312 5.070312 -24.273438 6.09375 -24.640625 C 7.125 -25.003906 8.070312 -25.460938 8.9375 -26.015625 C 9.800781 -26.566406 10.625 -27.242188 11.40625 -28.046875 C 12.195312 -28.859375 13.050781 -29.847656 13.96875 -31.015625 L 19.640625 -31.015625 L 18.046875 -23.65625 L 22.328125 -23.65625 L 21.609375 -19.96875 L 17.265625 -19.96875 L 15.015625 -9.234375 C 14.828125 -8.390625 14.675781 -7.640625 14.5625 -6.984375 C 14.457031 -6.328125 14.40625 -5.8125 14.40625 -5.4375 C 14.40625 -4.707031 14.671875 -4.25 15.203125 -4.0625 C 15.734375 -3.882812 16.734375 -3.796875 18.203125 -3.796875 L 17.375 0 C 17.125 0.0703125 16.734375 0.125 16.203125 0.15625 C 15.671875 0.195312 15.082031 0.242188 14.4375 0.296875 C 13.789062 0.359375 13.128906 0.394531 12.453125 0.40625 C 11.773438 0.425781 11.179688 0.4375 10.671875 0.4375 C 9.753906 0.4375 8.851562 0.375 7.96875 0.25 C 7.09375 0.125 6.304688 -0.128906 5.609375 -0.515625 C 4.910156 -0.898438 4.347656 -1.457031 3.921875 -2.1875 C 3.503906 -2.925781 3.296875 -3.921875 3.296875 -5.171875 C 3.296875 -5.609375 3.320312 -6.15625 3.375 -6.8125 C 3.4375 -7.476562 3.554688 -8.210938 3.734375 -9.015625 L 6.046875 -19.96875 L 1.765625 -19.96875 Z M 2.53125 -23.65625 "/></g></g></g><g fill="#242323" fill-opacity="1"><g transform="translate(195.688347, 206.314309)"><g><path d="M 1.046875 -5.390625 C 3.578125 -6.191406 6.03125 -7.207031 8.40625 -8.4375 C 10.789062 -9.664062 12.914062 -11.148438 14.78125 -12.890625 C 16.65625 -14.640625 18.148438 -16.664062 19.265625 -18.96875 C 20.390625 -21.28125 20.953125 -23.941406 20.953125 -26.953125 C 20.953125 -28.421875 20.804688 -29.554688 20.515625 -30.359375 C 20.222656 -31.160156 19.707031 -31.5625 18.96875 -31.5625 C 18.3125 -31.5625 17.695312 -31.25 17.125 -30.625 C 16.5625 -30.007812 16.050781 -29.222656 15.59375 -28.265625 C 15.132812 -27.316406 14.710938 -26.253906 14.328125 -25.078125 C 13.941406 -23.898438 13.617188 -22.765625 13.359375 -21.671875 L 3.40625 -21.671875 L 5.21875 -29.921875 C 7.28125 -31.679688 9.445312 -33.046875 11.71875 -34.015625 C 13.988281 -34.984375 16.554688 -35.46875 19.421875 -35.46875 C 21.179688 -35.46875 22.835938 -35.265625 24.390625 -34.859375 C 25.953125 -34.460938 27.304688 -33.832031 28.453125 -32.96875 C 29.609375 -32.113281 30.523438 -31.035156 31.203125 -29.734375 C 31.890625 -28.429688 32.234375 -26.878906 32.234375 -25.078125 C 32.234375 -23.722656 32.003906 -22.382812 31.546875 -21.0625 C 31.085938 -19.738281 30.28125 -18.367188 29.125 -16.953125 C 27.96875 -15.546875 26.40625 -14.082031 24.4375 -12.5625 C 22.476562 -11.039062 20 -9.398438 17 -7.640625 L 29.265625 -7.640625 L 28.15625 0 L -0.171875 0 Z M 1.046875 -5.390625 "/></g></g></g><g fill="#242323" fill-opacity="1"><g transform="translate(226.925989, 206.314309)"><g><path d="M 19.53125 -15.953125 L 33.765625 -15.953125 L 30.578125 0 L 24.09375 0 L 23.046875 -3.515625 L 22.828125 -3.515625 C 21.867188 -2.421875 20.738281 -1.488281 19.4375 -0.71875 C 18.132812 0.0507812 16.441406 0.4375 14.359375 0.4375 C 12.742188 0.4375 11.191406 0.171875 9.703125 -0.359375 C 8.222656 -0.890625 6.90625 -1.734375 5.75 -2.890625 C 4.59375 -4.046875 3.664062 -5.554688 2.96875 -7.421875 C 2.269531 -9.296875 1.921875 -11.550781 1.921875 -14.1875 C 1.921875 -17.050781 2.359375 -19.765625 3.234375 -22.328125 C 4.117188 -24.898438 5.441406 -27.164062 7.203125 -29.125 C 8.960938 -31.082031 11.160156 -32.628906 13.796875 -33.765625 C 16.441406 -34.898438 19.523438 -35.46875 23.046875 -35.46875 C 25.753906 -35.46875 28.117188 -35.15625 30.140625 -34.53125 C 32.160156 -33.914062 34.066406 -33.222656 35.859375 -32.453125 L 33.765625 -21.78125 L 24.46875 -21.78125 C 24.507812 -22.1875 24.566406 -22.660156 24.640625 -23.203125 C 24.710938 -23.753906 24.765625 -24.332031 24.796875 -24.9375 C 24.835938 -25.539062 24.875 -26.132812 24.90625 -26.71875 C 24.945312 -27.3125 24.96875 -27.828125 24.96875 -28.265625 C 24.96875 -28.554688 24.945312 -28.894531 24.90625 -29.28125 C 24.875 -29.664062 24.785156 -30.039062 24.640625 -30.40625 C 24.492188 -30.78125 24.273438 -31.085938 23.984375 -31.328125 C 23.691406 -31.566406 23.269531 -31.6875 22.71875 -31.6875 C 21.757812 -31.6875 20.882812 -31.289062 20.09375 -30.5 C 19.3125 -29.707031 18.609375 -28.660156 17.984375 -27.359375 C 17.359375 -26.054688 16.816406 -24.578125 16.359375 -22.921875 C 15.898438 -21.273438 15.515625 -19.597656 15.203125 -17.890625 C 14.890625 -16.191406 14.648438 -14.523438 14.484375 -12.890625 C 14.328125 -11.265625 14.25 -9.847656 14.25 -8.640625 C 14.25 -8.265625 14.265625 -7.800781 14.296875 -7.25 C 14.335938 -6.707031 14.457031 -6.171875 14.65625 -5.640625 C 14.851562 -5.109375 15.144531 -4.648438 15.53125 -4.265625 C 15.914062 -3.878906 16.476562 -3.6875 17.21875 -3.6875 C 18.425781 -3.6875 19.597656 -4.34375 20.734375 -5.65625 C 21.867188 -6.976562 22.726562 -9.179688 23.3125 -12.265625 L 18.703125 -12.265625 Z M 19.53125 -15.953125 "/></g></g></g><g fill="#242323" fill-opacity="1"><g transform="translate(260.858429, 206.314309)"><g><path d="M 17.328125 -24.25 C 21.691406 -24.25 24.863281 -23.476562 26.84375 -21.9375 C 28.925781 -20.332031 29.96875 -17.660156 29.96875 -13.921875 C 29.96875 -11.609375 29.582031 -9.523438 28.8125 -7.671875 C 28.050781 -5.816406 26.972656 -4.285156 25.578125 -3.078125 C 22.785156 -0.734375 18.75 0.4375 13.46875 0.4375 C 8.957031 0.4375 5.734375 -0.421875 3.796875 -2.140625 C 1.703125 -3.941406 0.65625 -6.640625 0.65625 -10.234375 C 0.65625 -12.617188 1.140625 -14.78125 2.109375 -16.71875 C 3.085938 -18.664062 4.492188 -20.28125 6.328125 -21.5625 C 9.003906 -23.351562 12.671875 -24.25 17.328125 -24.25 Z M 13.578125 -3.296875 C 14.492188 -3.296875 15.289062 -3.804688 15.96875 -4.828125 C 16.65625 -5.859375 17.195312 -7.113281 17.59375 -8.59375 C 18 -10.082031 18.300781 -11.625 18.5 -13.21875 C 18.707031 -14.820312 18.8125 -16.207031 18.8125 -17.375 C 18.8125 -18.40625 18.707031 -19.1875 18.5 -19.71875 C 18.300781 -20.25 17.875 -20.515625 17.21875 -20.515625 C 16.226562 -20.515625 15.375 -19.984375 14.65625 -18.921875 C 13.9375 -17.859375 13.359375 -16.59375 12.921875 -15.125 C 12.484375 -13.65625 12.160156 -12.148438 11.953125 -10.609375 C 11.753906 -9.078125 11.65625 -7.832031 11.65625 -6.875 C 11.65625 -4.488281 12.296875 -3.296875 13.578125 -3.296875 Z M 13.578125 -3.296875 "/></g></g></g></svg>